<?xml version="1.0" standalone="no"?>
<!DOCTYPE svg PUBLIC "-//W3C//DTD SVG 20010904//EN"
 "http://www.w3.org/TR/2001/REC-SVG-20010904/DTD/svg10.dtd">
<svg version="1.0" xmlns="http://www.w3.org/2000/svg"
 width="512.000000pt" height="512.000000pt" viewBox="0 0 512.000000 512.000000"
 preserveAspectRatio="xMidYMid meet">
<metadata>
Created by potrace 1.11, written by Peter Selinger 2001-2013
</metadata>
<g transform="translate(0.000000,512.000000) scale(0.100000,-0.100000)"
fill="#000000" stroke="none">
<path d="M1815 5114 c-1217 -23 -1161 -19 -1330 -98 -169 -80 -301 -212 -381
-381 -70 -150 -74 -178 -86 -650 -14 -542 -14 -2274 0 -2835 12 -497 16 -522
99 -690 40 -81 62 -109 148 -195 86 -86 114 -108 195 -148 172 -86 189 -88
720 -97 1088 -20 1664 -21 2440 -7 889 17 860 14 1035 102 154 77 273 196 350
350 81 161 85 190 97 680 14 561 14 2304 0 2840 -12 472 -16 500 -86 650 -80
169 -212 301 -381 381 -150 70 -189 76 -620 85 -442 9 -1922 18 -2200 13z
m445 -867 c498 -117 898 -478 1055 -950 60 -181 70 -249 70 -477 0 -186 -3
-215 -27 -315 -31 -133 -79 -259 -117 -311 -15 -22 -52 -52 -82 -69 -47 -26
-64 -30 -129 -30 -90 1 -135 21 -197 88 -43 47 -73 122 -73 182 0 18 18 86 39
151 82 248 73 473 -29 690 -96 206 -242 354 -443 450 -125 59 -197 75 -354 81
-123 5 -156 3 -235 -16 -421 -97 -708 -455 -709 -882 0 -135 20 -242 62 -346
135 -324 413 -534 761 -573 125 -14 254 2 402 51 65 21 133 39 151 39 106 0
218 -78 255 -178 41 -107 4 -240 -84 -303 -74 -54 -264 -115 -435 -140 -119
-17 -401 -6 -511 20 -444 103 -817 401 -1004 802 -91 196 -126 345 -133 574
-4 143 -2 189 15 290 96 564 510 1016 1062 1160 141 37 211 44 400 40 153 -3
203 -8 290 -28z m2377 -774 c-3 -285 -11 -570 -17 -633 -15 -159 -49 -468 -56
-508 l-6 -32 -202 2 -201 3 -12 95 c-55 436 -73 734 -73 1258 l0 332 286 0
287 0 -6 -517z m-137 -1393 c78 -39 118 -78 150 -144 28 -55 31 -72 31 -151 0
-79 -3 -96 -31 -151 -34 -69 -79 -111 -157 -147 -74 -34 -208 -32 -285 5 -122
57 -182 154 -182 293 0 155 72 255 222 312 58 21 196 12 252 -17z m-1155 -221
c153 -72 224 -254 164 -414 -79 -212 -365 -275 -527 -117 -74 73 -97 128 -97
237 0 75 4 97 24 135 49 93 93 133 187 171 67 27 179 22 249 -12z"/>
</g>
</svg>
